<svg aria-hidden="true" style="position: absolute; width: 0; height: 0; overflow: hidden;" version="1.1" xmlns="http://www.w3.org/2000/svg" xmlns:xlink="http://www.w3.org/1999/xlink">
<defs>
<symbol id="icon-codeforces" viewBox="0 0 32 32">
<path fill="#000016" style="fill: var(#000016)" d="M6 10c1.104 0 2 0.896 2 2v14c0 1.104-0.896 2-2 2h-4c-1.103 0-2-0.896-2-2v-14c0-1.104 0.897-2 2-2zM18 4c1.104 0 2 0.896 2 2v20c0 1.104-0.896 2-2 2h-4c-1.103 0-2-0.896-2-2v-20c0-1.104 0.897-2 2-2zM30 14c1.104 0 2 0.896 2 2v10c0 1.104-0.896 2-2 2h-4c-1.104 0-2-0.896-2-2v-10c0-1.104 0.896-2 2-2z"></path>
</symbol>
</defs>
</svg>
